 <svg width="25" height="24" viewBox="0 0 25 24" fill="none" xmlns="http://www.w3.org/2000/svg">
                        <g clip-path="url(#clip0_176_1068)">
                        <path d="M17.2085 7.29166C16.0001 6.08333 14.3418 5.33333 12.5001 5.33333C8.8168 5.33333 5.8418 8.31666 5.8418 12C5.8418 15.6833 8.8168 18.6667 12.5001 18.6667C15.6085 18.6667 18.2001 16.5417 18.9418 13.6667H17.2085C16.5251 15.6083 14.6751 17 12.5001 17C9.7418 17 7.50013 14.7583 7.50013 12C7.50013 9.24166 9.7418 6.99999 12.5001 6.99999C13.8835 6.99999 15.1168 7.575 16.0168 8.48333L13.3335 11.1667H19.1668V5.33333L17.2085 7.29166Z" fill="black"/>
                        </g>
                        <defs>
                        <clipPath id="clip0_176_1068">
                        <rect width="20" height="20" fill="white" transform="translate(2.5 2)"/>
                        </clipPath>
                        </defs>
                        </svg>